
<svg version="1.0" xmlns="http://www.w3.org/2000/svg"
 width="280.000000pt" height="280.000000pt" viewBox="0 0 280.000000 280.000000"
 preserveAspectRatio="xMidYMid meet">

<g transform="translate(0.000000,280.000000) scale(0.100000,-0.100000)"
fill="#FFF" stroke="none">
<path d="M1011 2784 c-21 -15 -23 -22 -18 -66 9 -77 26 -103 66 -103 48 0 58
21 43 92 -7 36 -20 65 -33 76 -26 21 -29 21 -58 1z"/>
<path d="M1621 2623 c-16 -13 -24 -33 -28 -74 -5 -52 -4 -58 17 -69 35 -19 67
-5 80 35 18 54 16 96 -5 111 -25 18 -38 18 -64 -3z"/>
<path d="M1069 2489 c-16 -16 -19 -27 -13 -52 21 -97 41 -125 86 -114 35 9 41
30 27 95 -17 84 -58 113 -100 71z"/>
<path d="M1552 2313 c-12 -11 -26 -47 -37 -96 -17 -74 -17 -78 0 -97 24 -27
61 -25 79 3 16 25 36 113 36 157 0 19 -7 33 -19 40 -27 14 -36 13 -59 -7z"/>
<path d="M634 2215 c-9 -14 -14 -31 -11 -40 13 -31 181 -235 196 -236 43 -3
71 17 71 51 0 8 -43 68 -96 133 -103 127 -128 141 -160 92z"/>
<path d="M1932 2117 c-88 -109 -96 -123 -93 -160 1 -25 43 -42 68 -28 24 12
193 227 193 245 0 23 -32 56 -55 56 -18 0 -44 -27 -113 -113z"/>
<path d="M1137 2202 c-21 -23 -21 -44 -2 -110 12 -40 21 -53 39 -58 38 -9 66
12 66 49 -1 109 -56 172 -103 119z"/>
<path d="M1457 1938 c-8 -13 -31 -100 -52 -195 -22 -95 -40 -171 -42 -169 -2
1 -19 74 -39 162 -36 162 -51 194 -89 194 -29 0 -45 -18 -45 -51 0 -22 29
-164 66 -319 3 -13 -41 34 -101 110 -136 171 -154 190 -181 190 -27 0 -54 -25
-54 -50 0 -10 56 -88 125 -174 69 -86 121 -156 115 -156 -6 0 -60 25 -120 55
-60 30 -119 55 -130 55 -26 0 -54 -43 -45 -70 4 -14 46 -40 133 -83 l127 -62
-432 -3 -433 -2 -16 -25 c-15 -23 -15 -27 0 -50 l16 -25 432 0 c242 0 428 -4
423 -9 -6 -4 -111 -56 -235 -115 -124 -59 -233 -116 -244 -126 -24 -23 -15
-66 17 -81 19 -8 60 8 267 109 135 66 246 118 248 117 2 -1 -74 -99 -167 -216
-106 -132 -171 -223 -171 -236 0 -30 44 -59 70 -47 10 5 42 38 70 74 29 36 64
81 80 100 16 19 69 87 120 150 55 68 89 104 86 90 -14 -57 -59 -261 -76 -340
-16 -75 -17 -88 -4 -108 17 -26 55 -29 76 -4 8 9 34 105 58 212 24 107 46 203
50 214 4 11 26 -71 57 -209 51 -226 66 -265 103 -265 22 0 50 31 50 57 0 19
-18 99 -81 368 -10 44 -19 84 -19 89 0 5 37 -38 82 -95 92 -118 93 -119 130
-119 27 0 48 23 48 53 0 11 -65 104 -90 127 -17 17 -82 102 -79 104 2 2 114
-51 248 -116 160 -78 253 -118 270 -116 32 4 54 43 40 70 -8 15 -232 130 -479
247 -33 15 -11 16 435 21 l470 5 9 28 c7 19 7 34 0 45 -10 15 -53 17 -480 22
l-469 5 127 62 c104 51 129 68 134 88 7 30 -18 65 -47 65 -9 0 -70 -25 -134
-56 -64 -30 -118 -54 -120 -52 -2 2 44 61 101 132 64 79 104 138 104 152 0 44
-48 69 -82 42 -8 -7 -59 -68 -113 -136 -53 -68 -99 -122 -100 -120 -2 2 5 42
16 88 70 306 66 281 43 304 -23 23 -61 20 -77 -6z"/>
<path d="M165 1916 c-32 -32 -23 -62 26 -86 66 -34 104 -20 97 37 -2 20 -14
34 -43 50 -50 28 -51 28 -80 -1z"/>
<path d="M2450 1902 c-64 -32 -75 -41 -78 -65 -4 -35 13 -57 44 -57 32 0 160
65 167 85 8 18 -8 65 -22 65 -5 0 -15 2 -23 5 -7 2 -47 -13 -88 -33z"/>
<path d="M449 1796 c-24 -12 -36 -51 -22 -72 13 -19 251 -134 277 -134 31 0
48 22 44 57 -3 30 -44 56 -202 128 -63 28 -77 32 -97 21z"/>
<path d="M2067 1718 c-102 -50 -129 -67 -134 -87 -8 -33 8 -55 45 -59 21 -2
64 14 144 54 119 60 128 66 128 101 0 18 -32 53 -50 53 -3 0 -63 -28 -133 -62z"/>
<path d="M358 895 c-61 -32 -68 -38 -68 -65 0 -21 8 -35 25 -46 24 -16 28 -15
98 19 90 44 104 59 91 95 -14 41 -63 40 -146 -3z"/>
<path d="M2266 904 c-17 -17 -20 -33 -10 -59 8 -20 246 -135 280 -135 33 0 59
42 45 69 -12 22 -249 141 -281 141 -10 0 -26 -7 -34 -16z"/>
<path d="M1774 774 c-20 -29 -22 -25 100 -177 77 -96 105 -112 138 -79 30 30
20 52 -78 175 -73 91 -90 107 -115 107 -20 0 -34 -8 -45 -26z"/>
<path d="M682 543 c-11 -10 -54 -61 -96 -114 -83 -105 -93 -137 -52 -164 13
-8 31 -13 40 -9 24 9 196 229 196 251 0 23 -30 53 -52 53 -9 0 -25 -8 -36 -17z"/>
<path d="M1530 465 c-14 -17 -7 -98 12 -140 14 -30 46 -38 76 -19 22 14 24 21
18 60 -3 24 -12 59 -20 79 -12 29 -20 35 -44 35 -16 0 -35 -7 -42 -15z"/>
<path d="M1134 462 c-16 -10 -30 -42 -38 -82 -7 -43 15 -80 48 -80 33 0 55 29
62 83 5 38 3 51 -11 67 -19 21 -42 25 -61 12z"/>
<path d="M1600 180 c-24 -24 -24 -29 -5 -99 17 -67 34 -86 70 -77 37 9 46 43
30 112 -19 80 -54 105 -95 64z"/>
</g>
</svg>
